# xmcd
#
# Track frame offsets: 
#        150
#        15534
#        30416
#        46026
#        60907
#        76960
#        100900
#        118949
#        136420
#        154372
#        166464
#        182470
#        196496
#        213521
#        231318
#        244482
#        263376
#        280157
#        296144
#        310954
#
# Disc length: 4377 seconds
#
# Revision: 0
# Processed by: cddbd v1.5.2PL0 Copyright (c) Steve Scherf et al.
# Submitted via: ExactAudioCopy v1.1
#
DISCID=18111714
DTITLE=Various Artist - Het Beste Uit De MNM 1000 (2018) - CD 3
DYEAR=2018
DGENRE=Top 40
TTITLE0=Justin Bieber - What Do You Mean?
TTITLE1=Shawn Mendes - There's Nothing Holdin' Me Back
TTITLE2=Dimitri Vegas, Moguai and Like Mike Feat. Julian Perretta - Body
TTITLE2=Talk (Mammoth)
TTITLE3=Fiocco - Afflitto
TTITLE4=The Black Eyed Peas - Pump It
TTITLE5=Marco Borsato - Rood
TTITLE6=The Script - The Man Who Can't Be Moved
TTITLE7=Lady Antebellum - Need You Now
TTITLE8=Survivor - Eye Of The Tiger
TTITLE9=Lost Frequencies and Netsky - Here With You
TTITLE10=Jax Jones Feat. Raye - You Don't Know Me
TTITLE11=CNCO and Little Mix - Reggaeton lento
TTITLE12=Desiigner - Panda
TTITLE13=Outkast - Hey Ya!
TTITLE14=Julia Michaels - Issues
TTITLE15=Loïc Nottet - Million Eyes
TTITLE16=Gene Thomas - Voor haar
TTITLE17=Zara Larsson - Uncover
TTITLE18=Jasper Steverlinck - That's Not How Dreams Are Made
TTITLE19=3 Doors Down - Here Without You
EXTD=
EXTT0=
EXTT1=
EXTT2=
EXTT3=
EXTT4=
EXTT5=
EXTT6=
EXTT7=
EXTT8=
EXTT9=
EXTT10=
EXTT11=
EXTT12=
EXTT13=
EXTT14=
EXTT15=
EXTT16=
EXTT17=
EXTT18=
EXTT19=
PLAYORDER=
